<?xml version="1.0" encoding="iso-8859-1"?>
<!-- Generator: Adobe Illustrator 19.0.0, SVG Export Plug-In . SVG Version: 6.00 Build 0)  -->
<svg version="1.1" id="Capa_1" xmlns="http://www.w3.org/2000/svg" xmlns:xlink="http://www.w3.org/1999/xlink" x="0px" y="0px"
	 viewBox="0 0 512 512" style="enable-background:new 0 0 512 512;" xml:space="preserve">

<path style="fill:url(#SVGID_1_);" d="M469.509,441.27H42.491c-11.636,0-21.07-9.434-21.07-21.07V21.07
	C21.421,9.434,30.854,0,42.491,0h427.018c11.636,0,21.07,9.434,21.07,21.07v399.131C490.579,431.838,481.146,441.27,469.509,441.27z
	"/>
<linearGradient id="SVGID_2_" gradientUnits="userSpaceOnUse" x1="460.6831" y1="143.2783" x2="-4.0069" y2="105.8684" gradientTransform="matrix(1.0667 0 0 -1.0667 3.2667 557.5334)">
	<stop  offset="0" style="stop-color:#45cafc;stop-opacity:0"/>
	<stop  offset="0.179" style="stop-color:#303f9f;stop-opacity:0.179"/>
	<stop  offset="1" style="stop-color:#303f9f"/>
</linearGradient>
<path style="fill:url(#SVGID_2_);" d="M490.579,408.463v8.202c0,13.583-11.024,24.606-24.606,24.606H46.028
	c-13.583,0-24.606-11.024-24.606-24.606v-8.202H490.579z"/>

<linearGradient id="SVGID_4_" gradientUnits="userSpaceOnUse" x1="236.9375" y1="240.3775" x2="236.9375" y2="62.4675" gradientTransform="matrix(1.0667 0 0 -1.0667 3.2667 557.5334)">
	<stop  offset="0" style="stop-color:#FDC830"/>
	<stop  offset="1" style="stop-color:#F38E3D"/>
</linearGradient>
<path style="fill:url(#SVGID_4_);" d="M511.649,202.791V490.93c0,11.631-9.439,21.07-21.07,21.07H21.421
	c-11.631,0-21.07-9.439-21.07-21.07V202.791L258.81,406.651L511.649,202.791z"/>
<linearGradient id="SVGID_5_" gradientUnits="userSpaceOnUse" x1="237.879" y1="104.5775" x2="237.879" y2="42.8575" gradientTransform="matrix(1.0667 0 0 -1.0667 3.2667 557.5334)">
	<stop  offset="0" style="stop-color:#FDC830"/>
	<stop  offset="1" style="stop-color:#F38E3D"/>
</linearGradient>
<path style="fill:url(#SVGID_5_);" d="M508.807,501.465L272.034,310.559c-7.718-6.223-18.732-6.223-26.45,0L5.201,504.375
	c3.866,4.657,9.695,7.625,16.22,7.625h469.157C498.373,512,505.163,507.757,508.807,501.465z"/>

<g>
</g>
<g>
</g>
<g>
</g>
<g>
</g>
<g>
</g>
<g>
</g>
<g>
</g>
<g>
</g>
<g>
</g>
<g>
</g>
<g>
</g>
<g>
</g>
<g>
</g>
<g>
</g>
<g>
</g>
</svg>
